<svg width="340" height="100" viewBox="0 0 340 100" fill="none" xmlns="http://www.w3.org/2000/svg">
<path d="M46.5285 58.926H59.0845V64H41.0245V33.9H58.8695V38.974H46.5285V45.08H57.7945V50.154H46.5285V58.926ZM79.9563 48.047C83.5253 48.606 86.0623 50.928 86.0623 55.486C86.0623 61.377 81.5473 64 76.3443 64H63.6163V33.9H75.5273C80.8163 33.9 84.5573 36.48 84.5573 41.468C84.5573 44.693 82.9663 47.015 79.9563 47.961V48.047ZM74.6673 38.974H69.1203V46.198H74.4523C77.2473 46.198 78.7953 44.865 78.7953 42.543C78.7953 40.178 77.1183 38.974 74.6673 38.974ZM75.3983 58.926C78.4083 58.926 80.2143 57.421 80.2143 54.927C80.2143 52.433 78.4943 50.928 75.1833 50.928H69.1203V58.926H75.3983ZM100.815 33.9C107.566 33.9 110.963 37.942 110.963 43.274C110.963 48.778 107.566 52.863 100.815 52.863H95.8274V64H90.3234V33.9H100.815ZM100.213 47.789C103.18 47.789 105.072 46.284 105.072 43.317C105.072 40.393 103.18 38.974 100.213 38.974H95.8274V47.789H100.213ZM132.51 64L129.973 57.163H117.589L115.052 64H108.946L121.029 33.9H126.533L138.616 64H132.51ZM119.395 52.175H128.167L123.781 40.393L119.395 52.175ZM151.013 33.255C157.678 33.255 161.462 35.921 161.462 40.823C161.462 44.564 159.226 47.058 155.012 47.961V48.047C159.355 48.606 162.58 50.842 162.58 55.787C162.58 60.689 159.312 64.645 150.712 64.645C146.326 64.645 142.585 63.57 139.575 61.85L142.026 56.948C144.778 58.496 147.702 59.442 150.755 59.442C154.797 59.442 157.033 57.937 157.033 55.314C157.033 52.175 153.937 50.885 148.691 50.885H145.81V45.811H148.691C153.249 45.811 155.829 44.392 155.829 41.812C155.829 39.619 153.98 38.458 150.626 38.458C147.487 38.458 144.434 39.576 142.241 40.694L140.048 35.749C142.671 34.545 146.455 33.255 151.013 33.255ZM178.528 50.154V55.056H166.058V50.154H178.528ZM192.795 33.255C199.46 33.255 203.244 35.921 203.244 40.823C203.244 44.564 201.008 47.058 196.794 47.961V48.047C201.137 48.606 204.362 50.842 204.362 55.787C204.362 60.689 201.094 64.645 192.494 64.645C188.108 64.645 184.367 63.57 181.357 61.85L183.808 56.948C186.56 58.496 189.484 59.442 192.537 59.442C196.579 59.442 198.815 57.937 198.815 55.314C198.815 52.175 195.719 50.885 190.473 50.885H187.592V45.811H190.473C195.031 45.811 197.611 44.392 197.611 41.812C197.611 39.619 195.762 38.458 192.408 38.458C189.269 38.458 186.216 39.576 184.023 40.694L181.83 35.749C184.453 34.545 188.237 33.255 192.795 33.255ZM223.32 64.645C213.817 64.645 207.066 58.453 207.066 48.95C207.066 39.447 213.817 33.255 223.32 33.255C227.964 33.255 231.361 34.674 234.07 36.566L230.888 41.382C229.039 40.092 226.502 38.888 223.277 38.888C217.429 38.888 213.086 42.801 213.086 48.95C213.086 55.099 217.429 59.012 223.277 59.012C226.502 59.012 229.039 57.808 230.888 56.518L234.07 61.334C231.361 63.226 227.964 64.645 223.32 64.645ZM264.764 33.9L272.246 64H266.441L261.883 44.564H261.797L255.605 59.528H251.606L245.414 44.564H245.328L240.727 64H234.965L242.447 33.9H246.747L253.541 50.928H253.627L260.464 33.9H264.764ZM301.746 64H293.748L280.719 49.251V64H275.215V33.9H280.719V47.273L292.071 33.9H299.639L286.868 47.832L301.746 64Z" fill="black"/>
<rect x="8" y="34" width="26" height="6" fill="#FBB92F"/>
<rect x="8" y="46" width="26" height="6" fill="#EE7918"/>
<rect x="8" y="58" width="26" height="6" fill="#E42213"/>
</svg>
