<svg width="340" height="45" viewBox="0 0 340 45" fill="none" xmlns="http://www.w3.org/2000/svg">
<path d="M46.5285 33.926H59.0845V39H41.0245V8.9H58.8695V13.974H46.5285V20.08H57.7945V25.154H46.5285V33.926ZM79.9563 23.047C83.5253 23.606 86.0623 25.928 86.0623 30.486C86.0623 36.377 81.5473 39 76.3443 39H63.6163V8.9H75.5273C80.8163 8.9 84.5573 11.48 84.5573 16.468C84.5573 19.693 82.9663 22.015 79.9563 22.961V23.047ZM74.6673 13.974H69.1203V21.198H74.4523C77.2473 21.198 78.7953 19.865 78.7953 17.543C78.7953 15.178 77.1183 13.974 74.6673 13.974ZM75.3983 33.926C78.4083 33.926 80.2143 32.421 80.2143 29.927C80.2143 27.433 78.4943 25.928 75.1833 25.928H69.1203V33.926H75.3983ZM100.815 8.9C107.566 8.9 110.963 12.942 110.963 18.274C110.963 23.778 107.566 27.863 100.815 27.863H95.8274V39H90.3234V8.9H100.815ZM100.213 22.789C103.18 22.789 105.072 21.284 105.072 18.317C105.072 15.393 103.18 13.974 100.213 13.974H95.8274V22.789H100.213ZM132.51 39L129.973 32.163H117.589L115.052 39H108.946L121.029 8.9H126.533L138.616 39H132.51ZM119.395 27.175H128.167L123.781 15.393L119.395 27.175ZM151.013 8.255C157.678 8.255 161.462 10.921 161.462 15.823C161.462 19.564 159.226 22.058 155.012 22.961V23.047C159.355 23.606 162.58 25.842 162.58 30.787C162.58 35.689 159.312 39.645 150.712 39.645C146.326 39.645 142.585 38.57 139.575 36.85L142.026 31.948C144.778 33.496 147.702 34.442 150.755 34.442C154.797 34.442 157.033 32.937 157.033 30.314C157.033 27.175 153.937 25.885 148.691 25.885H145.81V20.811H148.691C153.249 20.811 155.829 19.392 155.829 16.812C155.829 14.619 153.98 13.458 150.626 13.458C147.487 13.458 144.434 14.576 142.241 15.694L140.048 10.749C142.671 9.545 146.455 8.255 151.013 8.255ZM178.528 25.154V30.056H166.058V25.154H178.528ZM192.795 8.255C199.46 8.255 203.244 10.921 203.244 15.823C203.244 19.564 201.008 22.058 196.794 22.961V23.047C201.137 23.606 204.362 25.842 204.362 30.787C204.362 35.689 201.094 39.645 192.494 39.645C188.108 39.645 184.367 38.57 181.357 36.85L183.808 31.948C186.56 33.496 189.484 34.442 192.537 34.442C196.579 34.442 198.815 32.937 198.815 30.314C198.815 27.175 195.719 25.885 190.473 25.885H187.592V20.811H190.473C195.031 20.811 197.611 19.392 197.611 16.812C197.611 14.619 195.762 13.458 192.408 13.458C189.269 13.458 186.216 14.576 184.023 15.694L181.83 10.749C184.453 9.545 188.237 8.255 192.795 8.255ZM223.32 39.645C213.817 39.645 207.066 33.453 207.066 23.95C207.066 14.447 213.817 8.255 223.32 8.255C227.964 8.255 231.361 9.674 234.07 11.566L230.888 16.382C229.039 15.092 226.502 13.888 223.277 13.888C217.429 13.888 213.086 17.801 213.086 23.95C213.086 30.099 217.429 34.012 223.277 34.012C226.502 34.012 229.039 32.808 230.888 31.518L234.07 36.334C231.361 38.226 227.964 39.645 223.32 39.645ZM264.764 8.9L272.246 39H266.441L261.883 19.564H261.797L255.605 34.528H251.606L245.414 19.564H245.328L240.727 39H234.965L242.447 8.9H246.747L253.541 25.928H253.627L260.464 8.9H264.764ZM301.746 39H293.748L280.719 24.251V39H275.215V8.9H280.719V22.273L292.071 8.9H299.639L286.868 22.832L301.746 39Z" fill="black"/>
<rect x="8" y="9" width="26" height="6" fill="#FBB92F"/>
<rect x="8" y="21" width="26" height="6" fill="#EE7918"/>
<rect x="8" y="33" width="26" height="6" fill="#E42213"/>
</svg>
